<svg xmlns="http://www.w3.org/2000/svg" viewBox="0 0 580 104.88"><defs><style>.cls-1{fill:#fff;}.cls-2{fill:#4dc2ff;}</style></defs><title>Asset 4</title><g id="Layer_2" data-name="Layer 2"><g id="Layer_1-2" data-name="Layer 1"><path class="cls-1" d="M94.29,32.78a43.1,43.1,0,0,1,8.93.86,19.19,19.19,0,0,1,6.91,2.84,13.17,13.17,0,0,1,4.47,5.23,18.44,18.44,0,0,1,1.58,8.06,15,15,0,0,1-2.35,8.64,17.14,17.14,0,0,1-7,5.67,16.46,16.46,0,0,1,9.46,6.38,19,19,0,0,1,3.12,11,18.92,18.92,0,0,1-2,9A17.44,17.44,0,0,1,112,96.62a24.16,24.16,0,0,1-7.78,3.55,34.93,34.93,0,0,1-9,1.15H62V32.78ZM92.37,60.52A10.85,10.85,0,0,0,99,58.6q2.59-1.92,2.59-6.24a8,8,0,0,0-.86-3.93A6.35,6.35,0,0,0,98.42,46a9.52,9.52,0,0,0-3.31-1.2,21.41,21.41,0,0,0-3.89-.34H77.11v16Zm.87,29.09a19.93,19.93,0,0,0,4.22-.43A10.35,10.35,0,0,0,101,87.74,7.16,7.16,0,0,0,103.46,85a9.37,9.37,0,0,0,.91-4.41q0-5.28-3-7.54a12.74,12.74,0,0,0-7.87-2.25H77.11V89.61Z" transform="translate(0 -14.49)"/><path class="cls-1" d="M166.58,32.78a22.16,22.16,0,0,1,8.31,1.49,19.06,19.06,0,0,1,6.33,4.08,17.63,17.63,0,0,1,4,6,19.19,19.19,0,0,1,1.4,7.34,20.61,20.61,0,0,1-2.55,10.47,16,16,0,0,1-8.3,6.72v.19a11.62,11.62,0,0,1,4.61,2.35,13.2,13.2,0,0,1,3,3.74,17.33,17.33,0,0,1,1.68,4.76,41.62,41.62,0,0,1,.72,5.18c.07,1.09.13,2.37.19,3.84s.18,3,.34,4.51a30.57,30.57,0,0,0,.77,4.37,10.07,10.07,0,0,0,1.58,3.5H173.59a26.8,26.8,0,0,1-1.54-7.77q-.28-4.51-.86-8.64-.76-5.39-3.26-7.87t-8.16-2.5H144.69v26.78H129.62V32.78Zm-5.37,31q5.17,0,7.77-2.31c1.73-1.53,2.59-4,2.59-7.48s-.86-5.75-2.59-7.25-4.32-2.26-7.77-2.26H144.69v19.3Z" transform="translate(0 -14.49)"/><path class="cls-1" d="M233.11,32.78l25.63,68.54H243.09l-5.18-15.26H212.28l-5.38,15.26H191.73l25.92-68.54ZM234,74.83l-8.64-25.15h-.19l-8.93,25.15Z" transform="translate(0 -14.49)"/><path class="cls-1" d="M308.66,51.07a15.16,15.16,0,0,0-3.36-3.79,15.41,15.41,0,0,0-4.56-2.55,15.63,15.63,0,0,0-5.33-.91,17.63,17.63,0,0,0-8.64,2A16.24,16.24,0,0,0,281,51.07a23.17,23.17,0,0,0-3.21,7.53,37.13,37.13,0,0,0-1,8.74,34.5,34.5,0,0,0,1,8.4A22.61,22.61,0,0,0,281,83.08a16.51,16.51,0,0,0,5.76,5.24,17.63,17.63,0,0,0,8.64,2q6.91,0,10.8-4.22A19.52,19.52,0,0,0,311,74.92h14.6a35,35,0,0,1-3,11.62,27.66,27.66,0,0,1-6.34,8.83,26.9,26.9,0,0,1-9.21,5.57,33.76,33.76,0,0,1-11.62,1.92,35,35,0,0,1-14.16-2.74,30.3,30.3,0,0,1-10.61-7.53A33.42,33.42,0,0,1,264,81.31a41.32,41.32,0,0,1-2.3-14A42.78,42.78,0,0,1,264,53.08a34.39,34.39,0,0,1,6.62-11.47,30.41,30.41,0,0,1,10.61-7.68,36.82,36.82,0,0,1,24.87-1.15,29,29,0,0,1,9,4.75,25.84,25.84,0,0,1,6.58,7.73A27.78,27.78,0,0,1,325,55.82H310.39A12.29,12.29,0,0,0,308.66,51.07Z" transform="translate(0 -14.49)"/><path class="cls-1" d="M350.9,32.78V61.2l26.78-28.42H396.5L369.72,59.85l29.37,41.47H380.18L359.54,70.51l-8.64,8.73v22.08H335.83V32.78Z" transform="translate(0 -14.49)"/><path class="cls-1" d="M456.4,32.78V45.45H420.21V60.14h33.22V71.85H420.21v16.8h37v12.67h-52V32.78Z" transform="translate(0 -14.49)"/><path class="cls-1" d="M462,45.45V32.78h56.16V45.45H497.59v55.87H482.51V45.45Z" transform="translate(0 -14.49)"/><path class="cls-2" d="M33,27.37a5.41,5.41,0,0,0-5.17,2.82,6.86,6.86,0,0,0-.86,2.7,24,24,0,0,0-.18,2.87V53.24a15.16,15.16,0,0,1-1.32,6.85,12.33,12.33,0,0,1-3.1,4,10.77,10.77,0,0,1-3.74,2,16.66,16.66,0,0,1-3.22.69v.35a16,16,0,0,1,3.22.75A11.67,11.67,0,0,1,22.37,70a13,13,0,0,1,3.1,3.79,12.28,12.28,0,0,1,1.32,6v18.4A23.3,23.3,0,0,0,27,101a6.86,6.86,0,0,0,.86,2.7A5.45,5.45,0,0,0,33,106.49h6.21v12.88H24.61a12.26,12.26,0,0,1-4.43-1,15.44,15.44,0,0,1-4.6-2.87A16.44,16.44,0,0,1,12,110.69a14.87,14.87,0,0,1-1.5-6.85V81.53a8.27,8.27,0,0,0-1.15-4.48,9.48,9.48,0,0,0-2.76-2.93A11.55,11.55,0,0,0,3.1,72.51,11.6,11.6,0,0,0,0,72V62a11.94,11.94,0,0,0,3.1-.51,10.37,10.37,0,0,0,3.45-1.73,10.19,10.19,0,0,0,2.76-3.22,9.67,9.67,0,0,0,1.15-4.89V30A14.86,14.86,0,0,1,12,23.17a16.44,16.44,0,0,1,3.62-4.83,15.44,15.44,0,0,1,4.6-2.87,12.26,12.26,0,0,1,4.43-1h14.6V27.37Z" transform="translate(0 -14.49)"/><path class="cls-2" d="M546.88,106.49a5.45,5.45,0,0,0,5.17-2.82,6.86,6.86,0,0,0,.86-2.7,23.3,23.3,0,0,0,.18-2.76V79.81a12.28,12.28,0,0,1,1.32-6,12.86,12.86,0,0,1,3.1-3.79,11.67,11.67,0,0,1,3.74-2.07,15.88,15.88,0,0,1,3.22-.75v-.35a16.51,16.51,0,0,1-3.22-.69,10.77,10.77,0,0,1-3.74-2,12.19,12.19,0,0,1-3.1-4,15.16,15.16,0,0,1-1.32-6.85V35.76a24,24,0,0,0-.18-2.87,6.86,6.86,0,0,0-.86-2.7,5.41,5.41,0,0,0-5.17-2.82h-6.21V14.49h14.6a12.3,12.3,0,0,1,4.43,1,15.44,15.44,0,0,1,4.6,2.87,16.44,16.44,0,0,1,3.62,4.83,14.86,14.86,0,0,1,1.5,6.84V51.63a9.67,9.67,0,0,0,1.15,4.89,10.19,10.19,0,0,0,2.76,3.22,10.37,10.37,0,0,0,3.45,1.73A12.24,12.24,0,0,0,580,62V72a11.89,11.89,0,0,0-3.22.52,11.55,11.55,0,0,0-3.45,1.61,9.48,9.48,0,0,0-2.76,2.93,8.27,8.27,0,0,0-1.15,4.48v22.31a14.87,14.87,0,0,1-1.5,6.85,16.44,16.44,0,0,1-3.62,4.83,15.44,15.44,0,0,1-4.6,2.87,12.3,12.3,0,0,1-4.43,1h-14.6V106.49Z" transform="translate(0 -14.49)"/></g></g></svg>