<?xml version="1.0" encoding="utf-8"?>
<!-- Generator: Adobe Illustrator 23.0.1, SVG Export Plug-In . SVG Version: 6.00 Build 0)  -->
<svg version="1.1" id="Layer_1" xmlns="http://www.w3.org/2000/svg" xmlns:xlink="http://www.w3.org/1999/xlink" x="0px" y="0px"
	 viewBox="0 0 548 548" style="enable-background:new 0 0 548 548;" xml:space="preserve">
<style type="text/css">
	.st0{fill:#FFFFFF;}
</style>
<path class="st0" d="M535,476L401.7,342.2C458.2,257.1,447,144,374.8,71.7C333.9,31.4,280.2,9,222.5,9S111,31.4,70.7,71.7
	c-83.4,84-83.4,220.1,0,303.5c72.2,72.2,185.4,83.4,270.5,27.4L475,536.5c6.2,6.2,16.8,6.2,23,0l37-37
	C541.7,492.8,541.7,482.2,535,476L535,476z M325.5,326.5c-56.6,56.6-149,56.6-206.1,0c-56.6-56.6-56.6-149,0-206.1
	c56.6-56.6,149-56.6,206.1,0C382.1,177.6,382.1,270,325.5,326.5z"/>
</svg>
