<svg xmlns="http://www.w3.org/2000/svg" width="13.001" height="13" viewBox="0 0 13.001 13">
  <path id="Icon_ionic-ios-call" data-name="Icon ionic-ios-call" d="M17.115,14.682a10.92,10.92,0,0,0-2.281-1.526c-.684-.328-.934-.322-1.418.027-.4.291-.663.562-1.127.46a6.723,6.723,0,0,1-2.264-1.675A6.675,6.675,0,0,1,8.35,9.7c-.1-.467.173-.724.46-1.127.349-.484.359-.734.027-1.418A10.7,10.7,0,0,0,7.311,4.877c-.5-.5-.609-.389-.883-.291a5.027,5.027,0,0,0-.809.43,2.44,2.44,0,0,0-.971,1.025c-.193.416-.416,1.191.721,3.215a17.941,17.941,0,0,0,3.154,4.207h0l0,0,0,0h0a18.011,18.011,0,0,0,4.207,3.154c2.024,1.137,2.8.914,3.215.721a2.4,2.4,0,0,0,1.025-.971,5.027,5.027,0,0,0,.43-.809C17.5,15.291,17.616,15.179,17.115,14.682Z" transform="translate(-4.49 -4.502)" fill="#a2732f"/>
</svg>
