<svg xmlns="http://www.w3.org/2000/svg" width="229.94" height="115.943" viewBox="0 0 229.94 115.943">
  <g id="logo_220310_2-14" transform="translate(-18.6 -23.46)">
    <path id="Path_1" data-name="Path 1" d="M89.092,139.4h-.4L39.909,48.792C32.545,35.313,25.569,27.017,18.6,23.784V23.46H82.325v.324C70.177,27.513,66.59,34.5,71.967,44.9l32.259,64.3Zm44-90.936c4.978-12.342,2.785-20.787-10.157-24.683V23.46H154v.324c-8.363,6.007-15.134,14.128-20.309,24.683Z" fill="#e2992f"/>
    <path id="Path_2" data-name="Path 2" d="M225.625,91.68,221.21,94.1l-14.288,30.727h-2.576L189.059,94.1l-3.919-2.42h20.287l-4.415,2.42,9.773,20.291L217.433,94.1l-5.9-2.42Z" transform="translate(-104.445 -42.784)" fill="#e2992f"/>
    <path id="Path_3" data-name="Path 3" d="M292.956,135.718a9.167,9.167,0,0,1-8.371,4.474c-5.839,0-10.645-4.389-10.645-11.331,0-6.54,4.06-11.961,10.69-11.961,3.893,0,6.585,2.465,6.585,5.735,0,3.729-2.651,6.987-7.621,9,2.36,2.509,5.343,4.169,8.121,4.169a5.221,5.221,0,0,0,1.2-.134Zm-13.878-14.6a15.947,15.947,0,0,0,4.266,10.257,9.2,9.2,0,0,0,1.614-5.686c0-3.9-2.4-7.215-4.183-7.215C279.7,118.47,279.078,119.458,279.078,121.113Z" transform="translate(-160.135 -58.6)" fill="#e2992f"/>
    <path id="Path_4" data-name="Path 4" d="M345.783,116.7v11.875h-.041c-4.307-5.153-6.257-6.316-7.707-6.048v16.216h3.11v.716H327.677v-.716h2.073V122.478l-2.36-2.2,10.645-3.852v5.593c2.364-3.356,5.056-5.466,6.961-5.466a2.237,2.237,0,0,1,.787.142Z" transform="translate(-193.656 -58.306)" fill="#e2992f"/>
    <path id="Path_5" data-name="Path 5" d="M405.065,109.463c0,8.11-4.351,12.677-12.636,12.677a35.619,35.619,0,0,1-10.235-1.7v-26.1l-2.364-2.2,10.649-4.031v14.724c2.2-2.42,4.765-3.986,7.211-3.986C401.892,98.848,405.065,102.521,405.065,109.463Zm-8.867,2.554c0-6-1.2-9-3.978-9a4.038,4.038,0,0,0-1.741.447v17.114a3.382,3.382,0,0,0,2.032.671c2.155.007,3.688-2.778,3.688-9.228Z" transform="translate(-226.543 -40.545)" fill="#e2992f"/>
    <path id="Path_6" data-name="Path 6" d="M474.306,135.718a9.167,9.167,0,0,1-8.371,4.474c-5.839,0-10.645-4.389-10.645-11.331,0-6.54,4.06-11.961,10.69-11.961,3.893,0,6.585,2.465,6.585,5.735,0,3.729-2.651,6.987-7.621,9,2.36,2.509,5.343,4.169,8.121,4.169a5.221,5.221,0,0,0,1.2-.134Zm-13.881-14.6a15.951,15.951,0,0,0,4.269,10.257,9.2,9.2,0,0,0,1.614-5.686c0-3.9-2.4-7.215-4.183-7.215C461.047,118.47,460.424,119.458,460.424,121.113Z" transform="translate(-273.868 -58.6)" fill="#e2992f"/>
    <path id="Path_7" data-name="Path 7" d="M528.086,135.718a9.161,9.161,0,0,1-8.367,4.474c-5.843,0-10.649-4.389-10.649-11.331,0-6.54,4.06-11.961,10.69-11.961,3.893,0,6.588,2.465,6.588,5.735,0,3.729-2.655,6.987-7.625,9,2.36,2.509,5.343,4.169,8.121,4.169a5.22,5.22,0,0,0,1.2-.134Zm-13.878-14.6a15.967,15.967,0,0,0,4.265,10.257,9.2,9.2,0,0,0,1.618-5.686c0-3.9-2.4-7.215-4.187-7.215C514.827,118.47,514.208,119.458,514.208,121.113Z" transform="translate(-307.595 -58.6)" fill="#e2992f"/>
    <path id="Path_8" data-name="Path 8" d="M589.656,120.958v.716H579.339l-6.171-10.44v9.72h1.242v.716h-11.6v-.716h2.073V94.307l-2.36-2.2,10.649-4.031v22.442l3.147-2.465c2.032-1.614,3.024-2.688,3.024-4.705a3.471,3.471,0,0,0-1.782-3.18v-.224h8.289a1.771,1.771,0,0,1,.332,1.119c0,1.79-1.946,3.091-4.683,4.389l-2.528,1.208,8.993,14.292Z" transform="translate(-341.116 -40.526)" fill="#e2992f"/>
    <path id="Path_9" data-name="Path 9" d="M246.66,198.913v-.447l1.368-.261.164-1.663v-6.029l-.164-1.663-1.368-.261v-.429h4.28v.429l-1.365.261-.164,1.663v6.044l.164,1.663,1.365.261v.433Z" transform="translate(-143.026 -103.291)" fill="#e2992f"/>
    <path id="Path_10" data-name="Path 10" d="M260.929,204.062v-.447l1.186-.194.183-1.238V198.6l-.183-1.253-1.365-.2v-.429l2.632-.28-.164,1.447a2.953,2.953,0,0,1,2.584-1.514,2.247,2.247,0,0,1,2.289,2.521V202.2l.164,1.238,1.2.194v.433h-3.673v-.447l1.037-.194.164-1.238v-2.964c0-1.167-.574-1.943-1.663-1.943-.69,0-1.119.183-1.943,1.089V202.2l.183,1.238,1.022.194v.433Z" transform="translate(-151.863 -108.439)" fill="#e2992f"/>
    <path id="Path_11" data-name="Path 11" d="M289.029,201.193c-.708,0-1.514-.328-1.514-1.711v-5.4H286.18v-.511l1.335-.261v-1.894l1.119-.216v2.274h1.954v.608h-1.976v4.94c0,.921.313,1.219.921,1.219a2.144,2.144,0,0,0,1.119-.332l.265.447A2.838,2.838,0,0,1,289.029,201.193Z" transform="translate(-167.811 -105.197)" fill="#e2992f"/>
    <path id="Path_12" data-name="Path 12" d="M304.825,204.46c-1.924,0-3.2-1.4-3.2-3.949s1.186-4.1,3.18-4.1c1.726,0,2.8,1.055,2.767,3.393H302.73v.477c0,2.01.955,3.326,2.718,3.326a2.849,2.849,0,0,0,1.711-.559l.28.373A3.52,3.52,0,0,1,304.825,204.46Zm-2.058-5.25h2.42l1.219-.164c0-1.32-.675-2.058-1.7-2.058s-1.711.694-1.943,2.207Z" transform="translate(-177.501 -108.465)" fill="#e2992f"/>
    <path id="Path_13" data-name="Path 13" d="M320.843,204v-.447l1.186-.194.183-1.238v-3.587l-.183-1.253-1.368-.2v-.429l2.636-.28-.164,1.562a2.713,2.713,0,0,1,2.338-1.663,2.3,2.3,0,0,1,.772.116l-.343,1.335a2.058,2.058,0,0,0-.872-.2,2.192,2.192,0,0,0-1.73.94v3.669l.183,1.238,1.35.194V204Z" transform="translate(-189.435 -108.382)" fill="#e2992f"/>
    <path id="Path_14" data-name="Path 14" d="M337.065,197.7v-.447l1.2-.194.157-1.223v-3.587L338.258,191l-1.368-.2v-.444l2.8-.28-.164,2.174v3.587l.164,1.238,1.186.194v.433Zm1.76-9.694a.861.861,0,0,1-.887-.887.887.887,0,0,1,.887-.891.9.9,0,0,1,.887.906.869.869,0,0,1-.887.872Z" transform="translate(-199.614 -102.08)" fill="#e2992f"/>
    <path id="Path_15" data-name="Path 15" d="M354.015,204.46c-1.928,0-3.2-1.4-3.2-3.949s1.186-4.1,3.18-4.1c1.726,0,2.8,1.055,2.763,3.393h-4.847v.477c0,2.01.955,3.326,2.714,3.326a2.852,2.852,0,0,0,1.715-.559l.28.373A3.527,3.527,0,0,1,354.015,204.46Zm-2.058-5.25h2.42l1.219-.164c0-1.32-.675-2.058-1.7-2.058s-1.711.694-1.943,2.207Z" transform="translate(-208.35 -108.465)" fill="#e2992f"/>
    <path id="Path_16" data-name="Path 16" d="M373.672,204.548a2.224,2.224,0,0,1-2.3-2.517v-3.292l-.183-1.253-1.335-.2v-.459l2.785-.28-.168,2.174v2.946c0,1.219.578,1.943,1.663,1.943a2.673,2.673,0,0,0,1.943-1.085v-3.8l-.164-1.26-1.35-.2v-.436l2.785-.28-.168,2.174v3.587l.168,1.238,1.216.194v.432l-2.487.28.183-1.45A3.022,3.022,0,0,1,373.672,204.548Z" transform="translate(-220.284 -108.552)" fill="#e2992f"/>
    <path id="Path_17" data-name="Path 17" d="M395.293,204v-.447l1.186-.194.179-1.238v-3.587l-.179-1.253-1.368-.2v-.429l2.636-.28-.168,1.562a2.713,2.713,0,0,1,2.338-1.663,2.32,2.32,0,0,1,.776.116l-.347,1.335a2.059,2.059,0,0,0-.872-.2,2.181,2.181,0,0,0-1.726.94v3.669l.179,1.238,1.35.194V204Z" transform="translate(-236.126 -108.382)" fill="#e2992f"/>
    <path id="Path_18" data-name="Path 18" d="M414.383,204.322a6.182,6.182,0,0,1-2.14-.459l-.149-1.812h.612l.313,1.234a3.1,3.1,0,0,0,1.447.347c.988,0,1.6-.492,1.6-1.335,0-1.07-.94-1.316-1.864-1.663s-2.14-.708-2.14-2.155a2.346,2.346,0,0,1,2.584-2.289,5.134,5.134,0,0,1,2.125.462l.164,1.827h-.608l-.343-1.286a3.841,3.841,0,0,0-1.491-.313c-.94,0-1.465.4-1.465,1.219,0,.988.887,1.234,1.693,1.532,1.171.41,2.289.746,2.289,2.3A2.469,2.469,0,0,1,414.383,204.322Z" transform="translate(-246.756 -108.327)" fill="#e2992f"/>
    <path id="Path_19" data-name="Path 19" d="M432.28,204.46c-1.831,0-3.08-1.491-3.08-3.9s1.35-4.15,3.356-4.15a6.283,6.283,0,0,1,2.14.373l.179,1.864H434.3l-.373-1.268a3.68,3.68,0,0,0-1.432-.328c-1.3,0-2.189.969-2.189,3.095,0,2.058.921,3.408,2.517,3.408a3.52,3.52,0,0,0,1.894-.641l.3.429a4.418,4.418,0,0,1-2.737,1.119Z" transform="translate(-257.505 -108.465)" fill="#e2992f"/>
    <path id="Path_20" data-name="Path 20" d="M447.879,197.251V196.8l1.186-.194.183-1.238v-7.688l-.183-1.253-1.365-.2v-.444l2.8-.28-.168,2.174v3.192a2.938,2.938,0,0,1,2.438-1.316,2.235,2.235,0,0,1,2.338,2.521v3.307l.183,1.238,1.167.194v.432h-3.639V196.8l1.022-.194.164-1.238v-2.964c0-1.182-.526-1.943-1.678-1.943a2.727,2.727,0,0,0-1.995,1.119v3.8l.183,1.238,1.022.194v.432Z" transform="translate(-269.107 -101.629)" fill="#e2992f"/>
    <path id="Path_21" data-name="Path 21" d="M473.443,204v-.447l1.186-.194.179-1.238v-3.587l-.179-1.253-1.368-.2v-.429l2.636-.28-.164,1.562a2.713,2.713,0,0,1,2.338-1.663,2.3,2.3,0,0,1,.772.116l-.343,1.335a2.059,2.059,0,0,0-.872-.2,2.185,2.185,0,0,0-1.73.94v3.669l.183,1.238,1.35.194V204Z" transform="translate(-285.137 -108.382)" fill="#e2992f"/>
    <path id="Path_22" data-name="Path 22" d="M489.718,197.7v-.447l1.2-.194.164-1.238v-3.587l-.164-1.253-1.368-.2v-.429l2.8-.28-.164,2.174v3.587l.164,1.238,1.186.194v.433Zm1.745-9.694a.865.865,0,0,1-.891-.887.887.887,0,0,1,.891-.891.9.9,0,0,1,.887.906.869.869,0,0,1-.887.872Z" transform="translate(-295.353 -102.08)" fill="#e2992f"/>
    <path id="Path_23" data-name="Path 23" d="M502.438,201.584l-.3-.477a4.325,4.325,0,0,0,1.614-3.587v-5.268l-.175-1.26-1.365-.2v-.436l2.849-.28-.164,2.174v5.019a4.735,4.735,0,0,1-2.461,4.314Zm1.745-13.576a.865.865,0,0,1-.891-.887.887.887,0,0,1,.891-.891.9.9,0,0,1,.887.906.869.869,0,0,1-.887.872Z" transform="translate(-303.249 -102.08)" fill="#e2992f"/>
    <path id="Path_24" data-name="Path 24" d="M514.333,204.062v-.447l1.186-.194.179-1.238V198.6l-.179-1.253-1.368-.2v-.429l2.636-.28-.164,1.447a2.949,2.949,0,0,1,2.584-1.514,2.249,2.249,0,0,1,2.289,2.521V202.2l.164,1.238,1.2.194v.433h-3.673v-.447l1.04-.194.164-1.238v-2.964c0-1.167-.578-1.943-1.663-1.943-.693,0-1.119.183-1.943,1.089V202.2l.179,1.238,1.022.194v.433Z" transform="translate(-310.781 -108.439)" fill="#e2992f"/>
    <path id="Path_25" data-name="Path 25" d="M542.473,204.955l-.79-2.174-1.432-3.587-.645-1.268-.746-.183V197.3h3.229v.444l-1.036.183.4,1.268,1.629,4.232,1.465-4.3-.6-1.193-.858-.183V197.3h3.393v.444l-1.089.183.4,1.268,1.615,4.232,1.514-4.232.332-1.268-1.119-.183V197.3h2.845v.444l-.805.183-.608,1.268-1.286,3.587-.69,2.174H546.8L546,202.781l-1.119-2.83-.94,2.83-.693,2.174Z" transform="translate(-326.278 -109.023)" fill="#e2992f"/>
    <path id="Path_26" data-name="Path 26" d="M577.045,204.46c-1.928,0-3.2-1.4-3.2-3.949s1.186-4.1,3.177-4.1c1.73,0,2.8,1.055,2.767,3.393h-4.847v.477c0,2.01.955,3.326,2.718,3.326a2.849,2.849,0,0,0,1.711-.559l.28.373A3.512,3.512,0,0,1,577.045,204.46Zm-2.058-5.25h2.42l1.216-.164c0-1.32-.675-2.058-1.693-2.058s-1.715.694-1.943,2.207Z" transform="translate(-348.222 -108.465)" fill="#e2992f"/>
    <path id="Path_27" data-name="Path 27" d="M593.04,204v-.447l1.186-.194.172-1.223v-3.587l-.183-1.253-1.365-.2v-.444l2.632-.28-.164,1.562a2.713,2.713,0,0,1,2.338-1.663,2.32,2.32,0,0,1,.776.116l-.347,1.335a2.059,2.059,0,0,0-.872-.2,2.192,2.192,0,0,0-1.73.94v3.669l.183,1.238,1.35.194V204Z" transform="translate(-360.137 -108.382)" fill="#e2992f"/>
    <path id="Path_28" data-name="Path 28" d="M609.164,197.251V196.8l1.186-.194.179-1.238v-7.688l-.179-1.253-1.35-.2v-.444l2.781-.28-.164,2.174v7.7l.179,1.238.94.194v.432Zm4.683,0V196.8l.824-.194-.981-1.223-.723-.839-1.186-1.167,1.2-1.137.444-.444,1.089-1.253-1.055-.2v-.444h3.311v.444l-1.059.19-1.491,1.26-1.286,1.249,2.207,2.338,1.335,1.238.723.194v.432Z" transform="translate(-370.266 -101.629)" fill="#e2992f"/>
  </g>
</svg>
